<?xml version="1.0" encoding="UTF-8"?>
<!DOCTYPE svg
PUBLIC "-//W3C//DTD SVG 1.1//EN"
       "http://www.w3.org/Graphics/SVG/1.1/DTD/svg11.dtd">
<svg viewBox="41 -11 997 705" width="956px" height="716px" xmlns="http://www.w3.org/2000/svg" version="1.1">
   <line x1="914" y1="448" x2="904" y2="448" style="stroke:#b0b;stroke-width:1;"/>
   <line x1="491" y1="176" x2="481" y2="176" style="stroke:#b0b;stroke-width:1;"/>
   <line x1="904" y1="448" x2="491" y2="176" style="stroke:#b0b;stroke-width:1;"/>
   <line x1="906,5" y1="448" x2="910,03553390593" y2="451,53553390593" style="stroke:#b0b;stroke-width:2;"/>
   <line x1="906,5" y1="448" x2="910,03553390593" y2="444,46446609407" style="stroke:#b0b;stroke-width:2;"/>
   <line x1="486" y1="176" x2="489,53553390593" y2="179,53553390593" style="stroke:#b0b;stroke-width:2;"/>
   <line x1="486" y1="176" x2="489,53553390593" y2="172,46446609407" style="stroke:#b0b;stroke-width:2;"/>
   <line x1="632" y1="600" x2="622" y2="600" style="stroke:#333;stroke-width:1;"/>
   <line x1="527" y1="470" x2="517" y2="470" style="stroke:#333;stroke-width:1;"/>
   <line x1="622" y1="600" x2="527" y2="470" style="stroke:#333;stroke-width:1;"/>
   <line x1="624,5" y1="600" x2="628,03553390593" y2="603,53553390593" style="stroke:#333;stroke-width:2;"/>
   <line x1="624,5" y1="600" x2="628,03553390593" y2="596,46446609407" style="stroke:#333;stroke-width:2;"/>
   <line x1="522" y1="470" x2="525,53553390593" y2="473,53553390593" style="stroke:#333;stroke-width:2;"/>
   <line x1="522" y1="470" x2="525,53553390593" y2="466,46446609407" style="stroke:#333;stroke-width:2;"/>
   <line x1="895" y1="353" x2="885" y2="353" style="stroke:#0b0;stroke-width:1;"/>
   <line x1="491" y1="176" x2="481" y2="176" style="stroke:#0b0;stroke-width:1;"/>
   <line x1="885" y1="353" x2="491" y2="176" style="stroke:#0b0;stroke-width:1;"/>
   <line x1="887,5" y1="353" x2="891,03553390593" y2="356,53553390593" style="stroke:#0b0;stroke-width:2;"/>
   <line x1="887,5" y1="353" x2="891,03553390593" y2="349,46446609407" style="stroke:#0b0;stroke-width:2;"/>
   <line x1="486" y1="176" x2="489,53553390593" y2="179,53553390593" style="stroke:#0b0;stroke-width:2;"/>
   <line x1="486" y1="176" x2="489,53553390593" y2="172,46446609407" style="stroke:#0b0;stroke-width:2;"/>
   <line x1="895" y1="373" x2="885" y2="373" style="stroke:#333;stroke-width:1;"/>
   <line x1="491" y1="176" x2="481" y2="176" style="stroke:#333;stroke-width:1;"/>
   <line x1="885" y1="373" x2="491" y2="176" style="stroke:#333;stroke-width:1;"/>
   <line x1="887,5" y1="373" x2="891,03553390593" y2="376,53553390593" style="stroke:#333;stroke-width:2;"/>
   <line x1="887,5" y1="373" x2="891,03553390593" y2="369,46446609407" style="stroke:#333;stroke-width:2;"/>
   <line x1="486" y1="176" x2="489,53553390593" y2="179,53553390593" style="stroke:#333;stroke-width:2;"/>
   <line x1="486" y1="176" x2="489,53553390593" y2="172,46446609407" style="stroke:#333;stroke-width:2;"/>
   <line x1="166" y1="347" x2="176" y2="347" style="stroke:#0bf;stroke-width:1;"/>
   <line x1="387" y1="176" x2="397" y2="176" style="stroke:#0bf;stroke-width:1;"/>
   <line x1="176" y1="347" x2="387" y2="176" style="stroke:#0bf;stroke-width:1;"/>
   <line x1="173,5" y1="347" x2="169,96446609407" y2="350,53553390593" style="stroke:#0bf;stroke-width:2;"/>
   <line x1="173,5" y1="347" x2="169,96446609407" y2="343,46446609407" style="stroke:#0bf;stroke-width:2;"/>
   <line x1="392" y1="176" x2="388,46446609407" y2="179,53553390593" style="stroke:#0bf;stroke-width:2;"/>
   <line x1="392" y1="176" x2="388,46446609407" y2="172,46446609407" style="stroke:#0bf;stroke-width:2;"/>
   <line x1="166" y1="367" x2="176" y2="367" style="stroke:#0bf;stroke-width:1;"/>
   <line x1="392" y1="321" x2="402" y2="321" style="stroke:#0bf;stroke-width:1;"/>
   <line x1="176" y1="367" x2="392" y2="321" style="stroke:#0bf;stroke-width:1;"/>
   <line x1="173,5" y1="367" x2="169,96446609407" y2="370,53553390593" style="stroke:#0bf;stroke-width:2;"/>
   <line x1="173,5" y1="367" x2="169,96446609407" y2="363,46446609407" style="stroke:#0bf;stroke-width:2;"/>
   <line x1="397" y1="321" x2="393,46446609407" y2="324,53553390593" style="stroke:#0bf;stroke-width:2;"/>
   <line x1="397" y1="321" x2="393,46446609407" y2="317,46446609407" style="stroke:#0bf;stroke-width:2;"/>
   <line x1="402" y1="341" x2="392" y2="341" style="stroke:#333;stroke-width:1;"/>
   <line x1="392" y1="470" x2="402" y2="470" style="stroke:#333;stroke-width:1;"/>
   <line x1="392" y1="341" x2="392" y2="470" style="stroke:#333;stroke-width:1;"/>
   <line x1="394,5" y1="341" x2="398,03553390593" y2="344,53553390593" style="stroke:#333;stroke-width:2;"/>
   <line x1="394,5" y1="341" x2="398,03553390593" y2="337,46446609407" style="stroke:#333;stroke-width:2;"/>
   <line x1="397" y1="470" x2="393,46446609407" y2="473,53553390593" style="stroke:#333;stroke-width:2;"/>
   <line x1="397" y1="470" x2="393,46446609407" y2="466,46446609407" style="stroke:#333;stroke-width:2;"/>
   <line x1="165" y1="405" x2="175" y2="405" style="stroke:#0bf;stroke-width:1;"/>
   <line x1="387" y1="176" x2="397" y2="176" style="stroke:#0bf;stroke-width:1;"/>
   <line x1="175" y1="405" x2="387" y2="176" style="stroke:#0bf;stroke-width:1;"/>
   <line x1="172,5" y1="405" x2="168,96446609407" y2="408,53553390593" style="stroke:#0bf;stroke-width:2;"/>
   <line x1="172,5" y1="405" x2="168,96446609407" y2="401,46446609407" style="stroke:#0bf;stroke-width:2;"/>
   <line x1="392" y1="176" x2="388,46446609407" y2="179,53553390593" style="stroke:#0bf;stroke-width:2;"/>
   <line x1="392" y1="176" x2="388,46446609407" y2="172,46446609407" style="stroke:#0bf;stroke-width:2;"/>
   <line x1="165" y1="425" x2="175" y2="425" style="stroke:#333;stroke-width:1;"/>
   <line x1="392" y1="321" x2="402" y2="321" style="stroke:#333;stroke-width:1;"/>
   <line x1="175" y1="425" x2="392" y2="321" style="stroke:#333;stroke-width:1;"/>
   <line x1="172,5" y1="425" x2="168,96446609407" y2="428,53553390593" style="stroke:#333;stroke-width:2;"/>
   <line x1="172,5" y1="425" x2="168,96446609407" y2="421,46446609407" style="stroke:#333;stroke-width:2;"/>
   <line x1="397" y1="321" x2="393,46446609407" y2="324,53553390593" style="stroke:#333;stroke-width:2;"/>
   <line x1="397" y1="321" x2="393,46446609407" y2="317,46446609407" style="stroke:#333;stroke-width:2;"/>
   <line x1="145" y1="74" x2="155" y2="74" style="stroke:#b0b;stroke-width:1;"/>
   <line x1="387" y1="176" x2="397" y2="176" style="stroke:#b0b;stroke-width:1;"/>
   <line x1="155" y1="74" x2="387" y2="176" style="stroke:#b0b;stroke-width:1;"/>
   <line x1="152,5" y1="74" x2="148,96446609407" y2="77,535533905933" style="stroke:#b0b;stroke-width:2;"/>
   <line x1="152,5" y1="74" x2="148,96446609407" y2="70,464466094067" style="stroke:#b0b;stroke-width:2;"/>
   <line x1="392" y1="176" x2="388,46446609407" y2="179,53553390593" style="stroke:#b0b;stroke-width:2;"/>
   <line x1="392" y1="176" x2="388,46446609407" y2="172,46446609407" style="stroke:#b0b;stroke-width:2;"/>
   <line x1="145" y1="134" x2="155" y2="134" style="stroke:#cb0;stroke-width:1;"/>
   <line x1="409" y1="58" x2="419" y2="58" style="stroke:#cb0;stroke-width:1;"/>
   <line x1="155" y1="134" x2="409" y2="58" style="stroke:#cb0;stroke-width:1;"/>
   <line x1="152,5" y1="134" x2="148,96446609407" y2="137,53553390593" style="stroke:#cb0;stroke-width:2;"/>
   <line x1="152,5" y1="134" x2="148,96446609407" y2="130,46446609407" style="stroke:#cb0;stroke-width:2;"/>
   <line x1="414" y1="58" x2="410,46446609407" y2="61,535533905933" style="stroke:#cb0;stroke-width:2;"/>
   <line x1="414" y1="58" x2="410,46446609407" y2="54,464466094067" style="stroke:#cb0;stroke-width:2;"/>
   <line x1="307" y1="39" x2="317" y2="39" style="stroke:#0bf;stroke-width:1;"/>
   <line x1="387" y1="176" x2="397" y2="176" style="stroke:#0bf;stroke-width:1;"/>
   <line x1="317" y1="39" x2="387" y2="176" style="stroke:#0bf;stroke-width:1;"/>
   <line x1="314,5" y1="39" x2="310,96446609407" y2="42,535533905933" style="stroke:#0bf;stroke-width:2;"/>
   <line x1="314,5" y1="39" x2="310,96446609407" y2="35,464466094067" style="stroke:#0bf;stroke-width:2;"/>
   <line x1="392" y1="176" x2="388,46446609407" y2="179,53553390593" style="stroke:#0bf;stroke-width:2;"/>
   <line x1="392" y1="176" x2="388,46446609407" y2="172,46446609407" style="stroke:#0bf;stroke-width:2;"/>
   <line x1="843" y1="278" x2="833" y2="278" style="stroke:#cb0;stroke-width:1;"/>
   <line x1="491" y1="176" x2="481" y2="176" style="stroke:#cb0;stroke-width:1;"/>
   <line x1="833" y1="278" x2="491" y2="176" style="stroke:#cb0;stroke-width:1;"/>
   <line x1="835,5" y1="278" x2="839,03553390593" y2="281,53553390593" style="stroke:#cb0;stroke-width:2;"/>
   <line x1="835,5" y1="278" x2="839,03553390593" y2="274,46446609407" style="stroke:#cb0;stroke-width:2;"/>
   <line x1="486" y1="176" x2="489,53553390593" y2="179,53553390593" style="stroke:#cb0;stroke-width:2;"/>
   <line x1="486" y1="176" x2="489,53553390593" y2="172,46446609407" style="stroke:#cb0;stroke-width:2;"/>
   <line x1="843" y1="298" x2="833" y2="298" style="stroke:#b0b;stroke-width:1;"/>
   <line x1="722" y1="580" x2="712" y2="580" style="stroke:#b0b;stroke-width:1;"/>
   <line x1="833" y1="298" x2="722" y2="580" style="stroke:#b0b;stroke-width:1;"/>
   <line x1="835,5" y1="298" x2="839,03553390593" y2="301,53553390593" style="stroke:#b0b;stroke-width:2;"/>
   <line x1="835,5" y1="298" x2="839,03553390593" y2="294,46446609407" style="stroke:#b0b;stroke-width:2;"/>
   <line x1="717" y1="580" x2="720,53553390593" y2="583,53553390593" style="stroke:#b0b;stroke-width:2;"/>
   <line x1="717" y1="580" x2="720,53553390593" y2="576,46446609407" style="stroke:#b0b;stroke-width:2;"/>
   <line x1="898" y1="72" x2="888" y2="72" style="stroke:#c00;stroke-width:1;"/>
   <line x1="491" y1="176" x2="481" y2="176" style="stroke:#c00;stroke-width:1;"/>
   <line x1="888" y1="72" x2="491" y2="176" style="stroke:#c00;stroke-width:1;"/>
   <line x1="890,5" y1="72" x2="894,03553390593" y2="75,535533905933" style="stroke:#c00;stroke-width:2;"/>
   <line x1="890,5" y1="72" x2="894,03553390593" y2="68,464466094067" style="stroke:#c00;stroke-width:2;"/>
   <line x1="486" y1="176" x2="489,53553390593" y2="179,53553390593" style="stroke:#c00;stroke-width:2;"/>
   <line x1="486" y1="176" x2="489,53553390593" y2="172,46446609407" style="stroke:#c00;stroke-width:2;"/>
   <line x1="672" y1="34" x2="662" y2="34" style="stroke:#b0b;stroke-width:1;"/>
   <line x1="491" y1="176" x2="481" y2="176" style="stroke:#b0b;stroke-width:1;"/>
   <line x1="662" y1="34" x2="491" y2="176" style="stroke:#b0b;stroke-width:1;"/>
   <line x1="664,5" y1="34" x2="668,03553390593" y2="37,535533905933" style="stroke:#b0b;stroke-width:2;"/>
   <line x1="664,5" y1="34" x2="668,03553390593" y2="30,464466094067" style="stroke:#b0b;stroke-width:2;"/>
   <line x1="486" y1="176" x2="489,53553390593" y2="179,53553390593" style="stroke:#b0b;stroke-width:2;"/>
   <line x1="486" y1="176" x2="489,53553390593" y2="172,46446609407" style="stroke:#b0b;stroke-width:2;"/>
   <line x1="672" y1="54" x2="662" y2="54" style="stroke:#0b0;stroke-width:1;"/>
   <line x1="491" y1="58" x2="481" y2="58" style="stroke:#0b0;stroke-width:1;"/>
   <line x1="662" y1="54" x2="491" y2="58" style="stroke:#0b0;stroke-width:1;"/>
   <line x1="664,5" y1="54" x2="668,03553390593" y2="57,535533905933" style="stroke:#0b0;stroke-width:2;"/>
   <line x1="664,5" y1="54" x2="668,03553390593" y2="50,464466094067" style="stroke:#0b0;stroke-width:2;"/>
   <line x1="486" y1="58" x2="489,53553390593" y2="61,535533905933" style="stroke:#0b0;stroke-width:2;"/>
   <line x1="486" y1="58" x2="489,53553390593" y2="54,464466094067" style="stroke:#0b0;stroke-width:2;"/>
   <line x1="201" y1="534" x2="211" y2="534" style="stroke:#c00;stroke-width:1;"/>
   <line x1="387" y1="176" x2="397" y2="176" style="stroke:#c00;stroke-width:1;"/>
   <line x1="211" y1="534" x2="387" y2="176" style="stroke:#c00;stroke-width:1;"/>
   <line x1="208,5" y1="534" x2="204,96446609407" y2="537,53553390593" style="stroke:#c00;stroke-width:2;"/>
   <line x1="208,5" y1="534" x2="204,96446609407" y2="530,46446609407" style="stroke:#c00;stroke-width:2;"/>
   <line x1="392" y1="176" x2="388,46446609407" y2="179,53553390593" style="stroke:#c00;stroke-width:2;"/>
   <line x1="392" y1="176" x2="388,46446609407" y2="172,46446609407" style="stroke:#c00;stroke-width:2;"/>
   <line x1="201" y1="554" x2="211" y2="554" style="stroke:#333;stroke-width:1;"/>
   <line x1="387" y1="176" x2="397" y2="176" style="stroke:#333;stroke-width:1;"/>
   <line x1="211" y1="554" x2="387" y2="176" style="stroke:#333;stroke-width:1;"/>
   <line x1="208,5" y1="554" x2="204,96446609407" y2="557,53553390593" style="stroke:#333;stroke-width:2;"/>
   <line x1="208,5" y1="554" x2="204,96446609407" y2="550,46446609407" style="stroke:#333;stroke-width:2;"/>
   <line x1="392" y1="176" x2="388,46446609407" y2="179,53553390593" style="stroke:#333;stroke-width:2;"/>
   <line x1="392" y1="176" x2="388,46446609407" y2="172,46446609407" style="stroke:#333;stroke-width:2;"/>
   <line x1="398" y1="428" x2="388" y2="428" style="stroke:#0bf;stroke-width:1;"/>
   <line x1="392" y1="470" x2="402" y2="470" style="stroke:#0bf;stroke-width:1;"/>
   <line x1="388" y1="428" x2="392" y2="470" style="stroke:#0bf;stroke-width:1;"/>
   <line x1="390,5" y1="428" x2="394,03553390593" y2="431,53553390593" style="stroke:#0bf;stroke-width:2;"/>
   <line x1="390,5" y1="428" x2="394,03553390593" y2="424,46446609407" style="stroke:#0bf;stroke-width:2;"/>
   <line x1="397" y1="470" x2="393,46446609407" y2="473,53553390593" style="stroke:#0bf;stroke-width:2;"/>
   <line x1="397" y1="470" x2="393,46446609407" y2="466,46446609407" style="stroke:#0bf;stroke-width:2;"/>
   <line x1="175" y1="473" x2="185" y2="473" style="stroke:#333;stroke-width:1;"/>
   <line x1="387" y1="176" x2="397" y2="176" style="stroke:#333;stroke-width:1;"/>
   <line x1="185" y1="473" x2="387" y2="176" style="stroke:#333;stroke-width:1;"/>
   <line x1="182,5" y1="473" x2="178,96446609407" y2="476,53553390593" style="stroke:#333;stroke-width:2;"/>
   <line x1="182,5" y1="473" x2="178,96446609407" y2="469,46446609407" style="stroke:#333;stroke-width:2;"/>
   <line x1="392" y1="176" x2="388,46446609407" y2="179,53553390593" style="stroke:#333;stroke-width:2;"/>
   <line x1="392" y1="176" x2="388,46446609407" y2="172,46446609407" style="stroke:#333;stroke-width:2;"/>
   <line x1="175" y1="493" x2="185" y2="493" style="stroke:#0bf;stroke-width:1;"/>
   <line x1="388" y1="388" x2="398" y2="388" style="stroke:#0bf;stroke-width:1;"/>
   <line x1="185" y1="493" x2="388" y2="388" style="stroke:#0bf;stroke-width:1;"/>
   <line x1="182,5" y1="493" x2="178,96446609407" y2="496,53553390593" style="stroke:#0bf;stroke-width:2;"/>
   <line x1="182,5" y1="493" x2="178,96446609407" y2="489,46446609407" style="stroke:#0bf;stroke-width:2;"/>
   <line x1="393" y1="388" x2="389,46446609407" y2="391,53553390593" style="stroke:#0bf;stroke-width:2;"/>
   <line x1="393" y1="388" x2="389,46446609407" y2="384,46446609407" style="stroke:#0bf;stroke-width:2;"/>
   <line x1="611" y1="468" x2="601" y2="468" style="stroke:#bbb;stroke-width:1;"/>
   <line x1="527" y1="470" x2="517" y2="470" style="stroke:#bbb;stroke-width:1;"/>
   <line x1="601" y1="468" x2="527" y2="470" style="stroke:#bbb;stroke-width:1;"/>
   <line x1="603,5" y1="468" x2="607,03553390593" y2="471,53553390593" style="stroke:#bbb;stroke-width:2;"/>
   <line x1="603,5" y1="468" x2="607,03553390593" y2="464,46446609407" style="stroke:#bbb;stroke-width:2;"/>
   <line x1="522" y1="470" x2="525,53553390593" y2="473,53553390593" style="stroke:#bbb;stroke-width:2;"/>
   <line x1="522" y1="470" x2="525,53553390593" y2="466,46446609407" style="stroke:#bbb;stroke-width:2;"/>
   <line x1="168" y1="188" x2="178" y2="188" style="stroke:#bbb;stroke-width:1;"/>
   <line x1="387" y1="176" x2="397" y2="176" style="stroke:#bbb;stroke-width:1;"/>
   <line x1="178" y1="188" x2="387" y2="176" style="stroke:#bbb;stroke-width:1;"/>
   <line x1="175,5" y1="188" x2="171,96446609407" y2="191,53553390593" style="stroke:#bbb;stroke-width:2;"/>
   <line x1="175,5" y1="188" x2="171,96446609407" y2="184,46446609407" style="stroke:#bbb;stroke-width:2;"/>
   <line x1="392" y1="176" x2="388,46446609407" y2="179,53553390593" style="stroke:#bbb;stroke-width:2;"/>
   <line x1="392" y1="176" x2="388,46446609407" y2="172,46446609407" style="stroke:#bbb;stroke-width:2;"/>
   <line x1="168" y1="328" x2="178" y2="328" style="stroke:#c00;stroke-width:1;"/>
   <line x1="409" y1="58" x2="419" y2="58" style="stroke:#c00;stroke-width:1;"/>
   <line x1="178" y1="328" x2="409" y2="58" style="stroke:#c00;stroke-width:1;"/>
   <line x1="175,5" y1="328" x2="171,96446609407" y2="331,53553390593" style="stroke:#c00;stroke-width:2;"/>
   <line x1="175,5" y1="328" x2="171,96446609407" y2="324,46446609407" style="stroke:#c00;stroke-width:2;"/>
   <line x1="414" y1="58" x2="410,46446609407" y2="61,535533905933" style="stroke:#c00;stroke-width:2;"/>
   <line x1="414" y1="58" x2="410,46446609407" y2="54,464466094067" style="stroke:#c00;stroke-width:2;"/>
   <line x1="206" y1="606" x2="216" y2="606" style="stroke:#b0b;stroke-width:1;"/>
   <line x1="387" y1="176" x2="397" y2="176" style="stroke:#b0b;stroke-width:1;"/>
   <line x1="216" y1="606" x2="387" y2="176" style="stroke:#b0b;stroke-width:1;"/>
   <line x1="213,5" y1="606" x2="209,96446609407" y2="609,53553390593" style="stroke:#b0b;stroke-width:2;"/>
   <line x1="213,5" y1="606" x2="209,96446609407" y2="602,46446609407" style="stroke:#b0b;stroke-width:2;"/>
   <line x1="392" y1="176" x2="388,46446609407" y2="179,53553390593" style="stroke:#b0b;stroke-width:2;"/>
   <line x1="392" y1="176" x2="388,46446609407" y2="172,46446609407" style="stroke:#b0b;stroke-width:2;"/>
   <line x1="206" y1="626" x2="216" y2="626" style="stroke:#bbb;stroke-width:1;"/>
   <line x1="388" y1="388" x2="398" y2="388" style="stroke:#bbb;stroke-width:1;"/>
   <line x1="216" y1="626" x2="388" y2="388" style="stroke:#bbb;stroke-width:1;"/>
   <line x1="213,5" y1="626" x2="209,96446609407" y2="629,53553390593" style="stroke:#bbb;stroke-width:2;"/>
   <line x1="213,5" y1="626" x2="209,96446609407" y2="622,46446609407" style="stroke:#bbb;stroke-width:2;"/>
   <line x1="393" y1="388" x2="389,46446609407" y2="391,53553390593" style="stroke:#bbb;stroke-width:2;"/>
   <line x1="393" y1="388" x2="389,46446609407" y2="384,46446609407" style="stroke:#bbb;stroke-width:2;"/>
   <line x1="397" y1="296" x2="387" y2="296" style="stroke:#0bf;stroke-width:1;"/>
   <line x1="392" y1="470" x2="402" y2="470" style="stroke:#0bf;stroke-width:1;"/>
   <line x1="387" y1="296" x2="392" y2="470" style="stroke:#0bf;stroke-width:1;"/>
   <line x1="389,5" y1="296" x2="393,03553390593" y2="299,53553390593" style="stroke:#0bf;stroke-width:2;"/>
   <line x1="389,5" y1="296" x2="393,03553390593" y2="292,46446609407" style="stroke:#0bf;stroke-width:2;"/>
   <line x1="397" y1="470" x2="393,46446609407" y2="473,53553390593" style="stroke:#0bf;stroke-width:2;"/>
   <line x1="397" y1="470" x2="393,46446609407" y2="466,46446609407" style="stroke:#0bf;stroke-width:2;"/>
   <line x1="600" y1="335" x2="590" y2="335" style="stroke:#cb0;stroke-width:1;"/>
   <line x1="491" y1="176" x2="481" y2="176" style="stroke:#cb0;stroke-width:1;"/>
   <line x1="590" y1="335" x2="491" y2="176" style="stroke:#cb0;stroke-width:1;"/>
   <line x1="592,5" y1="335" x2="596,03553390593" y2="338,53553390593" style="stroke:#cb0;stroke-width:2;"/>
   <line x1="592,5" y1="335" x2="596,03553390593" y2="331,46446609407" style="stroke:#cb0;stroke-width:2;"/>
   <line x1="486" y1="176" x2="489,53553390593" y2="179,53553390593" style="stroke:#cb0;stroke-width:2;"/>
   <line x1="486" y1="176" x2="489,53553390593" y2="172,46446609407" style="stroke:#cb0;stroke-width:2;"/>
   <line x1="796" y1="143" x2="786" y2="143" style="stroke:#0b0;stroke-width:1;"/>
   <line x1="491" y1="176" x2="481" y2="176" style="stroke:#0b0;stroke-width:1;"/>
   <line x1="786" y1="143" x2="491" y2="176" style="stroke:#0b0;stroke-width:1;"/>
   <line x1="788,5" y1="143" x2="792,03553390593" y2="146,53553390593" style="stroke:#0b0;stroke-width:2;"/>
   <line x1="788,5" y1="143" x2="792,03553390593" y2="139,46446609407" style="stroke:#0b0;stroke-width:2;"/>
   <line x1="486" y1="176" x2="489,53553390593" y2="179,53553390593" style="stroke:#0b0;stroke-width:2;"/>
   <line x1="486" y1="176" x2="489,53553390593" y2="172,46446609407" style="stroke:#0b0;stroke-width:2;"/>
   <line x1="796" y1="163" x2="786" y2="163" style="stroke:#c00;stroke-width:1;"/>
   <line x1="491" y1="58" x2="481" y2="58" style="stroke:#c00;stroke-width:1;"/>
   <line x1="786" y1="163" x2="491" y2="58" style="stroke:#c00;stroke-width:1;"/>
   <line x1="788,5" y1="163" x2="792,03553390593" y2="166,53553390593" style="stroke:#c00;stroke-width:2;"/>
   <line x1="788,5" y1="163" x2="792,03553390593" y2="159,46446609407" style="stroke:#c00;stroke-width:2;"/>
   <line x1="486" y1="58" x2="489,53553390593" y2="61,535533905933" style="stroke:#c00;stroke-width:2;"/>
   <line x1="486" y1="58" x2="489,53553390593" y2="54,464466094067" style="stroke:#c00;stroke-width:2;"/>
   <rect width="62" height="20" x="419" y="28" style="fill:#007;stroke:black;"/>
   <text width="62" height="20" x="424" y="42" style="fill:#fff;" font-family="Arial" font-size="16px"> address</text>
   <rect width="62" height="20" x="419" y="48" style="fill:#aea;stroke:black;"/>
   <text width="62" height="20" x="424" y="62" style="fill:black;" font-family="Arial" font-size="16px">id</text>
   <rect width="62" height="20" x="419" y="68" style="fill:none;stroke:black;"/>
   <text width="62" height="20" x="424" y="82" style="fill:black;" font-family="Arial" font-size="16px">ilce</text>
   <rect width="62" height="20" x="419" y="88" style="fill:none;stroke:black;"/>
   <text width="62" height="20" x="424" y="102" style="fill:black;" font-family="Arial" font-size="16px">city</text>
   <rect width="62" height="20" x="419" y="108" style="fill:none;stroke:black;"/>
   <text width="62" height="20" x="424" y="122" style="fill:black;" font-family="Arial" font-size="16px">country</text>
   <rect width="61" height="20" x="914" y="398" style="fill:#007;stroke:black;"/>
   <text width="61" height="20" x="919" y="412" style="fill:#fff;" font-family="Arial" font-size="16px"> contact</text>
   <rect width="61" height="20" x="914" y="418" style="fill:#aea;stroke:black;"/>
   <text width="61" height="20" x="919" y="432" style="fill:black;" font-family="Arial" font-size="16px">id</text>
   <rect width="61" height="20" x="914" y="438" style="fill:#aea;stroke:black;"/>
   <text width="61" height="20" x="919" y="452" style="fill:black;" font-family="Arial" font-size="16px">userid</text>
   <rect width="61" height="20" x="914" y="458" style="fill:none;stroke:black;"/>
   <text width="61" height="20" x="919" y="472" style="fill:black;" font-family="Arial" font-size="16px">email</text>
   <rect width="61" height="20" x="914" y="478" style="fill:none;stroke:black;"/>
   <text width="61" height="20" x="919" y="492" style="fill:black;" font-family="Arial" font-size="16px">phone</text>
   <rect width="80" height="20" x="632" y="550" style="fill:#007;stroke:black;"/>
   <text width="80" height="20" x="637" y="564" style="fill:#fff;" font-family="Arial" font-size="16px"> events</text>
   <rect width="80" height="20" x="632" y="570" style="fill:#aea;stroke:black;"/>
   <text width="80" height="20" x="637" y="584" style="fill:black;" font-family="Arial" font-size="16px">id</text>
   <rect width="80" height="20" x="632" y="590" style="fill:#aea;stroke:black;"/>
   <text width="80" height="20" x="637" y="604" style="fill:black;" font-family="Arial" font-size="16px">profileid</text>
   <rect width="80" height="20" x="632" y="610" style="fill:none;stroke:black;"/>
   <text width="80" height="20" x="637" y="624" style="fill:black;" font-family="Arial" font-size="16px">name</text>
   <rect width="80" height="20" x="632" y="630" style="fill:none;stroke:black;"/>
   <text width="80" height="20" x="637" y="644" style="fill:black;" font-family="Arial" font-size="16px">kategori</text>
   <rect width="80" height="20" x="632" y="650" style="fill:none;stroke:black;"/>
   <text width="80" height="20" x="637" y="664" style="fill:black;" font-family="Arial" font-size="16px">location</text>
   <rect width="80" height="20" x="632" y="670" style="fill:none;stroke:black;"/>
   <text width="80" height="20" x="637" y="684" style="fill:black;" font-family="Arial" font-size="16px">frequency</text>
   <rect width="115" height="20" x="402" y="440" style="fill:#007;stroke:black;"/>
   <text width="115" height="20" x="407" y="454" style="fill:#fff;" font-family="Arial" font-size="16px"> facebookprofile</text>
   <rect width="115" height="20" x="402" y="460" style="fill:#aea;stroke:black;"/>
   <text width="115" height="20" x="407" y="474" style="fill:black;" font-family="Arial" font-size="16px">profileid</text>
   <rect width="115" height="20" x="402" y="480" style="fill:none;stroke:black;"/>
   <text width="115" height="20" x="407" y="494" style="fill:black;" font-family="Arial" font-size="16px">type</text>
   <rect width="62" height="20" x="895" y="323" style="fill:#007;stroke:black;"/>
   <text width="62" height="20" x="900" y="337" style="fill:#fff;" font-family="Arial" font-size="16px"> friends</text>
   <rect width="62" height="20" x="895" y="343" style="fill:#aea;stroke:black;"/>
   <text width="62" height="20" x="900" y="357" style="fill:black;" font-family="Arial" font-size="16px">userid</text>
   <rect width="62" height="20" x="895" y="363" style="fill:#aea;stroke:black;"/>
   <text width="62" height="20" x="900" y="377" style="fill:black;" font-family="Arial" font-size="16px">friendid</text>
   <rect width="98" height="20" x="68" y="317" style="fill:#007;stroke:black;"/>
   <text width="98" height="20" x="73" y="331" style="fill:#fff;" font-family="Arial" font-size="16px"> groupadmins</text>
   <rect width="98" height="20" x="68" y="337" style="fill:#aea;stroke:black;"/>
   <text width="98" height="20" x="73" y="351" style="fill:black;" font-family="Arial" font-size="16px">userid</text>
   <rect width="98" height="20" x="68" y="357" style="fill:none;stroke:black;"/>
   <text width="98" height="20" x="73" y="371" style="fill:black;" font-family="Arial" font-size="16px">groupname</text>
   <rect width="66" height="20" x="402" y="291" style="fill:#007;stroke:black;"/>
   <text width="66" height="20" x="407" y="305" style="fill:#fff;" font-family="Arial" font-size="16px"> groups</text>
   <rect width="66" height="20" x="402" y="311" style="fill:none;stroke:black;"/>
   <text width="66" height="20" x="407" y="325" style="fill:black;" font-family="Arial" font-size="16px">name</text>
   <rect width="66" height="20" x="402" y="331" style="fill:none;stroke:black;"/>
   <text width="66" height="20" x="407" y="345" style="fill:black;" font-family="Arial" font-size="16px">profileid</text>
   <rect width="91" height="20" x="74" y="375" style="fill:#007;stroke:black;"/>
   <text width="91" height="20" x="79" y="389" style="fill:#fff;" font-family="Arial" font-size="16px"> groupusers</text>
   <rect width="91" height="20" x="74" y="395" style="fill:#aea;stroke:black;"/>
   <text width="91" height="20" x="79" y="409" style="fill:black;" font-family="Arial" font-size="16px">userid</text>
   <rect width="91" height="20" x="74" y="415" style="fill:none;stroke:black;"/>
   <text width="91" height="20" x="79" y="429" style="fill:black;" font-family="Arial" font-size="16px">groupname</text>
   <rect width="79" height="20" x="66" y="24" style="fill:#007;stroke:black;"/>
   <text width="79" height="20" x="71" y="38" style="fill:#fff;" font-family="Arial" font-size="16px"> highscholl</text>
   <rect width="79" height="20" x="66" y="44" style="fill:none;stroke:black;"/>
   <text width="79" height="20" x="71" y="58" style="fill:black;" font-family="Arial" font-size="16px">name</text>
   <rect width="79" height="20" x="66" y="64" style="fill:#aea;stroke:black;"/>
   <text width="79" height="20" x="71" y="78" style="fill:black;" font-family="Arial" font-size="16px">userid</text>
   <rect width="79" height="20" x="66" y="84" style="fill:none;stroke:black;"/>
   <text width="79" height="20" x="71" y="98" style="fill:black;" font-family="Arial" font-size="16px">startdate</text>
   <rect width="79" height="20" x="66" y="104" style="fill:none;stroke:black;"/>
   <text width="79" height="20" x="71" y="118" style="fill:black;" font-family="Arial" font-size="16px">enddate</text>
   <rect width="79" height="20" x="66" y="124" style="fill:none;stroke:black;"/>
   <text width="79" height="20" x="71" y="138" style="fill:black;" font-family="Arial" font-size="16px">addressid</text>
   <rect width="67" height="20" x="240" y="9" style="fill:#007;stroke:black;"/>
   <text width="67" height="20" x="245" y="23" style="fill:#fff;" font-family="Arial" font-size="16px"> hobbies</text>
   <rect width="67" height="20" x="240" y="29" style="fill:#aea;stroke:black;"/>
   <text width="67" height="20" x="245" y="43" style="fill:black;" font-family="Arial" font-size="16px">userid</text>
   <rect width="67" height="20" x="240" y="49" style="fill:none;stroke:black;"/>
   <text width="67" height="20" x="245" y="63" style="fill:black;" font-family="Arial" font-size="16px">hobby</text>
   <rect width="96" height="20" x="843" y="248" style="fill:#007;stroke:black;"/>
   <text width="96" height="20" x="848" y="262" style="fill:#fff;" font-family="Arial" font-size="16px"> joinedevents</text>
   <rect width="96" height="20" x="843" y="268" style="fill:#aea;stroke:black;"/>
   <text width="96" height="20" x="848" y="282" style="fill:black;" font-family="Arial" font-size="16px">userid</text>
   <rect width="96" height="20" x="843" y="288" style="fill:#aea;stroke:black;"/>
   <text width="96" height="20" x="848" y="302" style="fill:black;" font-family="Arial" font-size="16px">eventid</text>
   <rect width="84" height="20" x="898" y="42" style="fill:#007;stroke:black;"/>
   <text width="84" height="20" x="903" y="56" style="fill:#fff;" font-family="Arial" font-size="16px"> languages</text>
   <rect width="84" height="20" x="898" y="62" style="fill:#aea;stroke:black;"/>
   <text width="84" height="20" x="903" y="76" style="fill:black;" font-family="Arial" font-size="16px">userid</text>
   <rect width="84" height="20" x="898" y="82" style="fill:none;stroke:black;"/>
   <text width="84" height="20" x="903" y="96" style="fill:black;" font-family="Arial" font-size="16px">languages</text>
   <rect width="79" height="20" x="672" y="4" style="fill:#007;stroke:black;"/>
   <text width="79" height="20" x="677" y="18" style="fill:#fff;" font-family="Arial" font-size="16px"> livedin</text>
   <rect width="79" height="20" x="672" y="24" style="fill:#aea;stroke:black;"/>
   <text width="79" height="20" x="677" y="38" style="fill:black;" font-family="Arial" font-size="16px">userid</text>
   <rect width="79" height="20" x="672" y="44" style="fill:#aea;stroke:black;"/>
   <text width="79" height="20" x="677" y="58" style="fill:black;" font-family="Arial" font-size="16px">addressid</text>
   <rect width="79" height="20" x="672" y="64" style="fill:none;stroke:black;"/>
   <text width="79" height="20" x="677" y="78" style="fill:black;" font-family="Arial" font-size="16px">startdate</text>
   <rect width="79" height="20" x="672" y="84" style="fill:none;stroke:black;"/>
   <text width="79" height="20" x="677" y="98" style="fill:black;" font-family="Arial" font-size="16px">enddate</text>
   <rect width="90" height="20" x="111" y="504" style="fill:#007;stroke:black;"/>
   <text width="90" height="20" x="116" y="518" style="fill:#fff;" font-family="Arial" font-size="16px"> messages</text>
   <rect width="90" height="20" x="111" y="524" style="fill:#aea;stroke:black;"/>
   <text width="90" height="20" x="116" y="538" style="fill:black;" font-family="Arial" font-size="16px">gonderenid</text>
   <rect width="90" height="20" x="111" y="544" style="fill:#aea;stroke:black;"/>
   <text width="90" height="20" x="116" y="558" style="fill:black;" font-family="Arial" font-size="16px">alanid</text>
   <rect width="90" height="20" x="111" y="564" style="fill:none;stroke:black;"/>
   <text width="90" height="20" x="116" y="578" style="fill:black;" font-family="Arial" font-size="16px">content</text>
   <rect width="71" height="20" x="398" y="358" style="fill:#007;stroke:black;"/>
   <text width="71" height="20" x="403" y="372" style="fill:#fff;" font-family="Arial" font-size="16px"> page</text>
   <rect width="71" height="20" x="398" y="378" style="fill:none;stroke:black;"/>
   <text width="71" height="20" x="403" y="392" style="fill:black;" font-family="Arial" font-size="16px">name</text>
   <rect width="71" height="20" x="398" y="398" style="fill:none;stroke:black;"/>
   <text width="71" height="20" x="403" y="412" style="fill:black;" font-family="Arial" font-size="16px">category</text>
   <rect width="71" height="20" x="398" y="418" style="fill:none;stroke:black;"/>
   <text width="71" height="20" x="403" y="432" style="fill:black;" font-family="Arial" font-size="16px">profileid</text>
   <rect width="93" height="20" x="82" y="443" style="fill:#007;stroke:black;"/>
   <text width="93" height="20" x="87" y="457" style="fill:#fff;" font-family="Arial" font-size="16px"> pageadmins</text>
   <rect width="93" height="20" x="82" y="463" style="fill:#aea;stroke:black;"/>
   <text width="93" height="20" x="87" y="477" style="fill:black;" font-family="Arial" font-size="16px">userid</text>
   <rect width="93" height="20" x="82" y="483" style="fill:none;stroke:black;"/>
   <text width="93" height="20" x="87" y="497" style="fill:black;" font-family="Arial" font-size="16px">pagename</text>
   <rect width="66" height="20" x="611" y="418" style="fill:#007;stroke:black;"/>
   <text width="66" height="20" x="616" y="432" style="fill:#fff;" font-family="Arial" font-size="16px"> post</text>
   <rect width="66" height="20" x="611" y="438" style="fill:#aea;stroke:black;"/>
   <text width="66" height="20" x="616" y="452" style="fill:black;" font-family="Arial" font-size="16px">id</text>
   <rect width="66" height="20" x="611" y="458" style="fill:#aea;stroke:black;"/>
   <text width="66" height="20" x="616" y="472" style="fill:black;" font-family="Arial" font-size="16px">profileid</text>
   <rect width="66" height="20" x="611" y="478" style="fill:none;stroke:black;"/>
   <text width="66" height="20" x="616" y="492" style="fill:black;" font-family="Arial" font-size="16px">type</text>
   <rect width="66" height="20" x="611" y="498" style="fill:none;stroke:black;"/>
   <text width="66" height="20" x="616" y="512" style="fill:black;" font-family="Arial" font-size="16px">content</text>
   <rect width="112" height="20" x="56" y="138" style="fill:#007;stroke:black;"/>
   <text width="112" height="20" x="61" y="152" style="fill:#fff;" font-family="Arial" font-size="16px"> university</text>
   <rect width="112" height="20" x="56" y="158" style="fill:#aea;stroke:black;"/>
   <text width="112" height="20" x="61" y="172" style="fill:black;" font-family="Arial" font-size="16px">id</text>
   <rect width="112" height="20" x="56" y="178" style="fill:#aea;stroke:black;"/>
   <text width="112" height="20" x="61" y="192" style="fill:black;" font-family="Arial" font-size="16px">userid</text>
   <rect width="112" height="20" x="56" y="198" style="fill:none;stroke:black;"/>
   <text width="112" height="20" x="61" y="212" style="fill:black;" font-family="Arial" font-size="16px">name</text>
   <rect width="112" height="20" x="56" y="218" style="fill:none;stroke:black;"/>
   <text width="112" height="20" x="61" y="232" style="fill:black;" font-family="Arial" font-size="16px">startdate</text>
   <rect width="112" height="20" x="56" y="238" style="fill:none;stroke:black;"/>
   <text width="112" height="20" x="61" y="252" style="fill:black;" font-family="Arial" font-size="16px">enddate</text>
   <rect width="112" height="20" x="56" y="258" style="fill:none;stroke:black;"/>
   <text width="112" height="20" x="61" y="272" style="fill:black;" font-family="Arial" font-size="16px">department</text>
   <rect width="112" height="20" x="56" y="278" style="fill:none;stroke:black;"/>
   <text width="112" height="20" x="61" y="292" style="fill:black;" font-family="Arial" font-size="16px">degree</text>
   <rect width="112" height="20" x="56" y="298" style="fill:none;stroke:black;"/>
   <text width="112" height="20" x="61" y="312" style="fill:black;" font-family="Arial" font-size="16px">genelortalama</text>
   <rect width="112" height="20" x="56" y="318" style="fill:none;stroke:black;"/>
   <text width="112" height="20" x="61" y="332" style="fill:black;" font-family="Arial" font-size="16px">addressid</text>
   <rect width="107" height="20" x="99" y="576" style="fill:#007;stroke:black;"/>
   <text width="107" height="20" x="104" y="590" style="fill:#fff;" font-family="Arial" font-size="16px"> userlikespage</text>
   <rect width="107" height="20" x="99" y="596" style="fill:#aea;stroke:black;"/>
   <text width="107" height="20" x="104" y="610" style="fill:black;" font-family="Arial" font-size="16px">userid</text>
   <rect width="107" height="20" x="99" y="616" style="fill:none;stroke:black;"/>
   <text width="107" height="20" x="104" y="630" style="fill:black;" font-family="Arial" font-size="16px">pagename</text>
   <rect width="84" height="20" x="397" y="146" style="fill:#007;stroke:black;"/>
   <text width="84" height="20" x="402" y="160" style="fill:#fff;" font-family="Arial" font-size="16px"> users</text>
   <rect width="84" height="20" x="397" y="166" style="fill:#aea;stroke:black;"/>
   <text width="84" height="20" x="402" y="180" style="fill:black;" font-family="Arial" font-size="16px">id</text>
   <rect width="84" height="20" x="397" y="186" style="fill:none;stroke:black;"/>
   <text width="84" height="20" x="402" y="200" style="fill:black;" font-family="Arial" font-size="16px">lastname</text>
   <rect width="84" height="20" x="397" y="206" style="fill:none;stroke:black;"/>
   <text width="84" height="20" x="402" y="220" style="fill:black;" font-family="Arial" font-size="16px">firstname</text>
   <rect width="84" height="20" x="397" y="226" style="fill:none;stroke:black;"/>
   <text width="84" height="20" x="402" y="240" style="fill:black;" font-family="Arial" font-size="16px">birthdate</text>
   <rect width="84" height="20" x="397" y="246" style="fill:none;stroke:black;"/>
   <text width="84" height="20" x="402" y="260" style="fill:black;" font-family="Arial" font-size="16px">sex</text>
   <rect width="84" height="20" x="397" y="266" style="fill:none;stroke:black;"/>
   <text width="84" height="20" x="402" y="280" style="fill:black;" font-family="Arial" font-size="16px">hometown</text>
   <rect width="84" height="20" x="397" y="286" style="fill:none;stroke:black;"/>
   <text width="84" height="20" x="402" y="300" style="fill:black;" font-family="Arial" font-size="16px">profileid</text>
   <rect width="74" height="20" x="600" y="305" style="fill:#007;stroke:black;"/>
   <text width="74" height="20" x="605" y="319" style="fill:#fff;" font-family="Arial" font-size="16px"> userskills</text>
   <rect width="74" height="20" x="600" y="325" style="fill:#aea;stroke:black;"/>
   <text width="74" height="20" x="605" y="339" style="fill:black;" font-family="Arial" font-size="16px">userid</text>
   <rect width="74" height="20" x="600" y="345" style="fill:none;stroke:black;"/>
   <text width="74" height="20" x="605" y="359" style="fill:black;" font-family="Arial" font-size="16px">skill</text>
   <rect width="115" height="20" x="796" y="113" style="fill:#007;stroke:black;"/>
   <text width="115" height="20" x="801" y="127" style="fill:#fff;" font-family="Arial" font-size="16px"> works</text>
   <rect width="115" height="20" x="796" y="133" style="fill:#aea;stroke:black;"/>
   <text width="115" height="20" x="801" y="147" style="fill:black;" font-family="Arial" font-size="16px">userid</text>
   <rect width="115" height="20" x="796" y="153" style="fill:#aea;stroke:black;"/>
   <text width="115" height="20" x="801" y="167" style="fill:black;" font-family="Arial" font-size="16px">addressid</text>
   <rect width="115" height="20" x="796" y="173" style="fill:none;stroke:black;"/>
   <text width="115" height="20" x="801" y="187" style="fill:black;" font-family="Arial" font-size="16px">companyname</text>
   <rect width="115" height="20" x="796" y="193" style="fill:none;stroke:black;"/>
   <text width="115" height="20" x="801" y="207" style="fill:black;" font-family="Arial" font-size="16px">position</text>
   <rect width="115" height="20" x="796" y="213" style="fill:none;stroke:black;"/>
   <text width="115" height="20" x="801" y="227" style="fill:black;" font-family="Arial" font-size="16px">startdate</text>
   <rect width="115" height="20" x="796" y="233" style="fill:none;stroke:black;"/>
   <text width="115" height="20" x="801" y="247" style="fill:black;" font-family="Arial" font-size="16px">enddate</text>
</svg>
